<?xml version="1.0" encoding="UTF-8"?>
<svg width="16px" height="16px" viewBox="0 0 16 16" version="1.1" xmlns="http://www.w3.org/2000/svg" xmlns:xlink="http://www.w3.org/1999/xlink">
    <title>VSCode/kaleidoscope~dark</title>
    <g id="VSCode/kaleidoscope~dark" stroke="none" stroke-width="1" fill="none" fill-rule="evenodd">
        <path d="M8.00154225,14.6249332 C4.32871416,14.6249332 1.86875581,13.4538866 1.2376073,13.1154997 C2.27938255,11.1155954 3.82303493,9.28678555 5.69746997,7.81537305 C6.05486732,7.53401769 6.45408776,7.22984973 6.883725,6.93708807 C6.49591086,7.4921946 6.12330511,8.12334311 5.76970986,8.82673151 C5.30965583,9.74303748 5.05111306,10.4654364 5.02069627,10.5452805 C5.00548787,10.5909057 5.00548787,10.6441351 5.01309207,10.6935623 L5.01309207,10.6973644 C5.01689417,10.7163749 5.02449837,10.7315833 5.03210256,10.7505938 L5.04731096,10.7734064 C5.06251936,10.8000211 5.08152986,10.8266358 5.10814455,10.8456463 C5.11194665,10.8494484 5.11955085,10.8532505 5.12715505,10.8608547 C5.13856135,10.8684589 5.14996765,10.8760631 5.16517605,10.8836673 C6.24877439,11.6707019 7.39700843,12.3170588 8.57946137,12.8037276 C9.95582137,13.3778446 11.3359835,13.7580545 12.6971351,13.9405553 C11.5298906,14.2979526 9.92920668,14.6249332 8.00154225,14.6249332 M8.30190811,2.02097346 C8.43117949,2.23769313 8.56045087,2.4696212 8.68211805,2.69774717 C9.01290071,3.31368728 9.29805817,3.96004419 9.54139253,4.6102032 C10.092697,6.11203249 10.4044691,7.69750797 10.4691048,9.33241074 C10.3968649,9.17272256 10.3170208,9.00543018 10.2295725,8.82673151 C9.60602822,7.57964288 8.92165032,6.56448233 8.19544932,5.80026033 C8.16503252,5.76984354 8.12701153,5.74703094 8.08518844,5.73562464 C8.06237584,5.72802044 8.03956324,5.72421834 8.01294855,5.72421834 L7.99013595,5.72421834 C7.95971915,5.72421834 7.87987506,5.74703094 7.87227087,5.75463514 C6.87231871,6.20328288 5.94460644,6.82682719 5.17278024,7.37432951 C3.81923283,8.33245858 2.6139673,9.47689052 1.57979625,10.7848127 C2.22235106,8.24881239 3.84964963,4.25660795 7.94451076,1.45065854 C8.06998004,1.63315932 8.18784512,1.83086849 8.30190811,2.02097346 Z M5.64043848,10.4350196 C5.75830356,10.1384558 5.96361693,9.64418289 6.25257649,9.07006588 C6.78867252,8.00167593 7.38940423,7.08156785 8.00154225,6.38958575 C8.61368026,7.08156785 9.21441198,8.00167593 9.7467059,9.07006588 C10.0356655,9.64418289 10.2409788,10.1384558 10.3588439,10.4350196 C9.94821717,10.5110616 9.11555739,10.6327288 8.00154225,10.6327288 C6.883725,10.6327288 6.05106522,10.5110616 5.64043848,10.4350196 M14.8187066,13.0166451 C14.6970394,13.0280514 14.5715701,13.0356556 14.453705,13.0432598 C14.415684,13.0432598 14.3396421,13.0470619 14.3016211,13.050864 C13.3016689,13.0850829 12.2370811,12.9900304 11.1306701,12.7733108 C9.53759043,12.4539344 7.96732335,11.8874216 6.52632765,11.1041891 C6.9255481,11.1422101 7.42362313,11.1726269 8.00154225,11.1726269 C9.70868491,11.1726269 10.780877,10.8988757 10.7922833,10.8988757 C10.8379084,10.8874694 10.8759294,10.8646568 10.9063462,10.8304379 C10.9253567,10.8152295 10.9443672,10.7924169 10.9557735,10.7696043 L10.9671798,10.7505938 C10.9861903,10.7163749 10.9937945,10.682156 10.9937945,10.6441351 L10.9937945,10.6327288 C11.0280134,9.78486058 11.0546281,8.78110632 10.9671798,7.76594576 C10.8303043,6.08541779 10.4234796,4.40108773 9.7733206,2.81941435 C14.0620888,6.7735978 14.7274562,11.9938804 14.8187066,13.0166451 M14.4765176,8.69746013 C13.9290153,7.23745393 13.2028143,5.88010442 12.3169251,4.66343259 C11.7922354,3.9410337 11.20291,3.26045789 10.5641573,2.64071568 C10.1079054,2.19587004 9.61743452,1.773837 9.10415109,1.38602285 C8.83039993,1.17310528 8.55284667,0.975396111 8.26768921,0.785291138 C8.24107451,0.76628064 8.21065772,0.751072243 8.18024092,0.739665944 C8.03576114,0.682634452 7.86466667,0.69784285 7.73539528,0.785291138 C6.9103397,1.33279346 6.13851351,1.96013987 5.43512511,2.64071568 C4.8001745,3.26045789 4.21084908,3.9410337 3.68235725,4.66343259 C2.79646808,5.88010442 2.07026708,7.23745393 1.52276476,8.69746013 C1.03609602,9.99397605 0.78515746,11.1308038 0.659688178,11.8608069 C0.64447978,11.9482552 0.633073481,12.0319014 0.621667183,12.1117454 L0.617865083,12.1155475 C0.519010497,12.7733108 0.503802099,13.164927 0.5,13.1687291 C0.5,13.202948 0.503802099,13.2371669 0.507604199,13.2713858 C0.530416796,13.4044593 0.610260885,13.5261265 0.728125968,13.5945642 C0.758542764,13.6135747 1.45052487,14.0356078 2.69761349,14.4576408 C3.42001239,14.7009752 4.18803648,14.8948823 4.97507107,15.0317578 C5.95601273,15.2066544 6.97497539,15.2941027 8.00154225,15.2941027 C9.024307,15.2941027 10.0432697,15.2066544 11.0280134,15.0317578 C11.815048,14.8948823 12.57927,14.7009752 13.305471,14.4576408 C13.7008893,14.3207652 14.031672,14.1876918 14.3130274,14.0660246 L14.3206316,14.0660246 C14.9251654,13.8074818 15.2521459,13.6059705 15.2711564,13.5945642 C15.3015732,13.5755537 15.33199,13.5527411 15.3586047,13.5261265 C15.4536572,13.431074 15.5068866,13.3018026 15.4992824,13.1687291 C15.4954803,13.0812808 15.4688656,12.6098205 15.3395942,11.8608069 C15.2141249,11.1346059 14.9631864,9.99397605 14.4765176,8.69746013 Z" id="Fill-1" fill="#FFFFFF"></path>
    </g>
</svg>