<?xml version="1.0" encoding="UTF-8"?>
<svg width="16px" height="16px" viewBox="0 0 16 16" version="1.1" xmlns="http://www.w3.org/2000/svg" xmlns:xlink="http://www.w3.org/1999/xlink">
    <title>vscode/kaleidoscope~dark</title>
    <g id="vscode/kaleidoscope~dark" stroke="none" stroke-width="1" fill="none" fill-rule="evenodd" opacity="0.8">
        <path d="M8.00458611,3.36780969 C8.52908653,3.79688547 9.02319635,4.26119518 9.48319479,4.75708423 C10.8892762,6.27313626 11.977398,8.08439708 12.6404458,10.0873616 C12.860275,10.7511194 13.0333634,11.4359091 13.1557194,12.1378778 C12.5445978,12.3699279 11.9138824,12.5627389 11.2666026,12.7133006 C10.1794733,12.9663401 9.04590078,13.1 7.8810987,13.1 C6.79187206,13.1 5.73013044,12.983202 4.70767908,12.7610054 C4.06799809,12.6221534 3.44386209,12.442024 2.83825947,12.2233913 C2.96145092,11.4918369 3.13947241,10.7786738 3.36806727,10.0882032 C4.03087653,8.08565571 5.11872886,6.27440072 6.52460041,4.75840934 C6.98498865,4.26196019 7.47955213,3.79718303 8.00458611,3.36780969 Z" id="KS-Logo" stroke="#FFFFFF" stroke-width="3.8"></path>
    </g>
</svg>